<?xml version="1.0" standalone="no"?>
<!DOCTYPE svg PUBLIC "-//W3C//DTD SVG 20010904//EN"
 "http://www.w3.org/TR/2001/REC-SVG-20010904/DTD/svg10.dtd">
<svg version="1.0" xmlns="http://www.w3.org/2000/svg"
 width="315.000000pt" height="108.000000pt" viewBox="0 0 315.000000 108.000000"
 preserveAspectRatio="xMidYMid meet">

<g transform="translate(0.000000,108.000000) scale(0.100000,-0.100000)"
fill="#000000" stroke="none">
<path d="M451 921 c-13 -8 -10 -18 13 -63 32 -60 56 -90 56 -70 0 33 -34 142
-44 142 -6 0 -18 -4 -25 -9z"/>
<path d="M2613 880 c-47 -11 -116 -55 -153 -97 -96 -109 -103 -262 -18 -389
25 -37 50 -57 107 -88 65 -34 81 -39 141 -39 117 0 226 68 281 174 30 60 36
162 13 235 -24 81 -118 176 -195 198 -55 17 -123 19 -176 6z m224 -132 c14
-70 -2 -80 -34 -20 -26 48 -24 72 5 72 14 0 21 -12 29 -52z m-57 -123 l5 -110
38 -3 c31 -3 37 -7 37 -27 0 -20 -6 -24 -37 -27 -33 -3 -39 -7 -43 -33 -4 -24
-10 -30 -30 -30 -20 0 -26 6 -28 30 -2 17 -10 34 -18 38 -18 11 -18 36 1 43
12 5 15 23 14 78 0 39 -3 64 -6 56 -6 -15 -108 -170 -145 -221 -24 -31 -78
-42 -78 -15 0 8 4 16 8 18 4 2 28 33 51 71 24 37 48 67 52 67 5 0 9 5 9 11 0
6 25 47 56 91 49 69 60 79 83 76 l26 -3 5 -110z"/>
<path d="M254 703 c-43 -65 -81 -122 -86 -128 -8 -10 -153 -219 -163 -235 -4
-6 11 -10 33 -10 l39 0 134 200 c74 110 137 200 141 200 5 0 8 -56 8 -125 l0
-125 -26 0 c-22 0 -25 -4 -22 -27 2 -20 9 -29 26 -31 19 -3 22 -9 22 -48 0
-44 0 -44 35 -44 35 0 35 0 35 45 l0 45 55 0 c54 0 55 0 55 30 0 30 -1 30 -55
30 l-55 0 0 170 0 170 -49 0 -48 0 -79 -117z"/>
<path d="M587 593 c1 -126 3 -236 3 -245 0 -16 12 -18 115 -18 l115 0 0 30 0
30 -85 0 -85 0 0 215 0 215 -32 0 -33 0 2 -227z"/>
<path d="M865 653 l0 -168 -83 -3 -83 -3 3 -27 c3 -26 5 -27 83 -32 l80 -5 3
-42 c3 -38 6 -43 28 -43 22 0 24 4 24 44 0 27 5 46 13 48 16 6 17 58 0 58 -10
0 -13 29 -13 125 0 69 4 125 8 125 5 0 53 -66 107 -147 55 -82 115 -172 134
-200 31 -46 40 -53 68 -53 18 0 33 4 33 10 0 7 -172 265 -217 325 -5 6 -30 43
-57 83 -47 70 -49 72 -90 72 l-41 0 0 -167z"/>
<path d="M1328 575 l3 -245 29 0 30 0 2 218 3 217 55 3 c114 7 170 -26 170
-98 0 -57 -41 -90 -119 -97 -50 -5 -61 -9 -56 -21 3 -9 38 -62 78 -119 70 -99
73 -103 110 -103 43 0 45 5 13 45 -50 62 -96 125 -96 133 0 4 21 16 46 26 65
27 86 64 82 143 -4 68 -25 108 -69 130 -15 8 -71 13 -154 13 l-130 0 3 -245z"/>
<path d="M1720 575 l0 -245 130 0 130 0 0 30 0 30 -95 0 c-76 0 -95 3 -95 14
0 11 15 16 53 18 48 3 52 5 55 31 3 27 2 27 -52 27 l-56 0 0 145 0 145 95 0
c95 0 95 0 95 25 l0 25 -130 0 -130 0 0 -245z"/>
<path d="M2079 805 c-38 -20 -63 -78 -56 -129 7 -52 54 -95 131 -119 74 -24
94 -66 64 -132 -13 -30 -28 -34 -123 -37 -68 -3 -70 -4 -73 -30 l-3 -28 78 0
c137 1 193 44 193 150 0 62 -24 98 -83 126 -29 13 -57 24 -63 24 -5 0 -23 13
-38 29 -21 22 -26 34 -20 55 10 43 40 56 126 56 77 0 78 0 78 25 0 25 0 25
-92 25 -61 -1 -102 -6 -119 -15z"/>
<path d="M1560 239 c0 -11 5 -17 10 -14 6 4 8 10 5 15 -3 5 3 11 12 13 14 4
13 5 -4 6 -17 1 -23 -5 -23 -20z"/>
<path d="M1787 254 c-4 -4 -7 -14 -7 -23 0 -14 2 -14 10 -1 8 12 10 12 10 1 0
-8 3 -12 6 -8 3 3 2 13 -3 22 -5 8 -12 12 -16 9z"/>
<path d="M2010 240 c-8 -5 -12 -12 -9 -15 4 -3 12 1 19 10 14 17 11 19 -10 5z"/>
<path d="M440 229 c0 -5 5 -7 10 -4 6 3 10 8 10 11 0 2 -4 4 -10 4 -5 0 -10
-5 -10 -11z"/>
<path d="M641 224 c0 -11 3 -14 6 -6 3 7 2 16 -1 19 -3 4 -6 -2 -5 -13z"/>
</g>
</svg>
