<svg width="16" height="16" viewBox="0 0 16 16" fill="none" xmlns="http://www.w3.org/2000/svg">
<g id="cart-shopping 1" clip-path="url(#clip0_29_463)">
<path id="Vector" d="M0 0.75C0 0.334375 0.297222 0 0.666667 0H1.93056C2.54167 0 3.08333 0.4 3.33611 1H14.7528C15.4833 1 16.0167 1.78125 15.825 2.575L14.6861 7.33437C14.45 8.31563 13.6583 9 12.7556 9H4.74167L4.89167 9.89062C4.95278 10.2437 5.22778 10.5 5.54722 10.5H13.5556C13.925 10.5 14.2222 10.8344 14.2222 11.25C14.2222 11.6656 13.925 12 13.5556 12H5.54722C4.58611 12 3.76111 11.2312 3.58333 10.1719L2.15 1.70312C2.13056 1.58438 2.03889 1.5 1.93056 1.5H0.666667C0.297222 1.5 0 1.16562 0 0.75ZM3.55556 14.5C3.55556 14.303 3.59004 14.108 3.65705 13.926C3.72406 13.744 3.82227 13.5786 3.94608 13.4393C4.06989 13.3001 4.21688 13.1896 4.37864 13.1142C4.54041 13.0388 4.71379 13 4.88889 13C5.06398 13 5.23737 13.0388 5.39913 13.1142C5.5609 13.1896 5.70789 13.3001 5.8317 13.4393C5.95551 13.5786 6.05372 13.744 6.12073 13.926C6.18773 14.108 6.22222 14.303 6.22222 14.5C6.22222 14.697 6.18773 14.892 6.12073 15.074C6.05372 15.256 5.95551 15.4214 5.8317 15.5607C5.70789 15.6999 5.5609 15.8104 5.39913 15.8858C5.23737 15.9612 5.06398 16 4.88889 16C4.71379 16 4.54041 15.9612 4.37864 15.8858C4.21688 15.8104 4.06989 15.6999 3.94608 15.5607C3.82227 15.4214 3.72406 15.256 3.65705 15.074C3.59004 14.892 3.55556 14.697 3.55556 14.5ZM12.8889 13C13.2425 13 13.5816 13.158 13.8317 13.4393C14.0817 13.7206 14.2222 14.1022 14.2222 14.5C14.2222 14.8978 14.0817 15.2794 13.8317 15.5607C13.5816 15.842 13.2425 16 12.8889 16C12.5353 16 12.1961 15.842 11.9461 15.5607C11.696 15.2794 11.5556 14.8978 11.5556 14.5C11.5556 14.1022 11.696 13.7206 11.9461 13.4393C12.1961 13.158 12.5353 13 12.8889 13Z" fill="white"/>
</g>
<defs>
<clipPath id="clip0_29_463">
<rect width="16" height="16" fill="white"/>
</clipPath>
</defs>
</svg>
