<svg width="20" height="20" viewBox="0 0 20 20" fill="none" xmlns="http://www.w3.org/2000/svg">
<g id="user-regular 1" clip-path="url(#clip0_9_12)">
<path id="Vector" d="M13.5714 5C13.5714 4.1712 13.1952 3.37634 12.5254 2.79029C11.8556 2.20424 10.9472 1.875 10 1.875C9.0528 1.875 8.14439 2.20424 7.47462 2.79029C6.80485 3.37634 6.42857 4.1712 6.42857 5C6.42857 5.8288 6.80485 6.62366 7.47462 7.20971C8.14439 7.79576 9.0528 8.125 10 8.125C10.9472 8.125 11.8556 7.79576 12.5254 7.20971C13.1952 6.62366 13.5714 5.8288 13.5714 5ZM4.28571 5C4.28571 3.67392 4.88775 2.40215 5.95939 1.46447C7.03103 0.526784 8.48448 0 10 0C11.5155 0 12.969 0.526784 14.0406 1.46447C15.1122 2.40215 15.7143 3.67392 15.7143 5C15.7143 6.32608 15.1122 7.59785 14.0406 8.53553C12.969 9.47322 11.5155 10 10 10C8.48448 10 7.03103 9.47322 5.95939 8.53553C4.88775 7.59785 4.28571 6.32608 4.28571 5ZM2.20089 18.125H17.7991C17.4018 15.6523 14.9732 13.75 12.0402 13.75H7.95982C5.02679 13.75 2.59821 15.6523 2.20089 18.125ZM0 18.8398C0 14.9922 3.5625 11.875 7.95982 11.875H12.0402C16.4375 11.875 20 14.9922 20 18.8398C20 19.4805 19.4062 20 18.6741 20H1.32589C0.59375 20 0 19.4805 0 18.8398Z" fill="#FFC692"/>
</g>
<defs>
<clipPath id="clip0_9_12">
<rect width="20" height="20" fill="white"/>
</clipPath>
</defs>
</svg>
