<svg width="30" height="30" viewBox="0 0 30 30" fill="none" xmlns="http://www.w3.org/2000/svg">
<g id="Menu Icon">
<path id="Vector" d="M1.07143 7.73438H28.9286C29.5203 7.73438 30 7.31467 30 6.79688V4.45312C30 3.93533 29.5203 3.51562 28.9286 3.51562H1.07143C0.479665 3.51562 0 3.93533 0 4.45312V6.79688C0 7.31467 0.479665 7.73438 1.07143 7.73438ZM1.07143 17.1094H28.9286C29.5203 17.1094 30 16.6897 30 16.1719V13.8281C30 13.3103 29.5203 12.8906 28.9286 12.8906H1.07143C0.479665 12.8906 0 13.3103 0 13.8281V16.1719C0 16.6897 0.479665 17.1094 1.07143 17.1094ZM1.07143 26.4844H28.5C29.0918 26.4844 30 26.0647 30 25.5469V23.2031C30 22.6853 29.5203 22.2656 28.9286 22.2656H1.07143C0.479665 22.2656 0 22.6853 0 23.2031V25.5469C0 26.0647 0.479665 26.4844 1.07143 26.4844Z" fill="#FFC692"/>
</g>
</svg>
